<svg width="900" height="900" fill="black"><rect x="0" y="0" width="900" height="900" fill="black"></rect><rect transform="rotate(0,184,190.84224149407737)" x="184" y="190.84224149407737" width="58" height="58" fill="none" stroke="white" stroke-width="3"></rect><rect transform="rotate(1.8145150924735405,184,244.63281383878908)" x="184" y="244.63281383878908" width="58" height="58" fill="none" stroke="white" stroke-width="3"></rect><rect transform="rotate(-1.580757322542361,184,310.8256133799651)" x="184" y="310.8256133799651" width="58" height="58" fill="none" stroke="white" stroke-width="3"></rect><rect transform="rotate(5.240983768146355,184,369.83668323453514)" x="184" y="369.83668323453514" width="58" height="58" fill="none" stroke="white" stroke-width="3"></rect><rect transform="rotate(1.3094166077936293,184,428.01803258723754)" x="184" y="428.01803258723754" width="58" height="58" fill="none" stroke="white" stroke-width="3"></rect><rect transform="rotate(-5.719012645101258,184,484.54152318680815)" x="184" y="484.54152318680815" width="58" height="58" fill="none" stroke="white" stroke-width="3"></rect><rect transform="rotate(4.196839740072165,184,551.4330130412026)" x="184" y="551.4330130412026" width="58" height="58" fill="none" stroke="white" stroke-width="3"></rect><rect transform="rotate(9.884055880743297,184,604.7606893190854)" x="184" y="604.7606893190854" width="58" height="58" fill="none" stroke="white" stroke-width="3"></rect><rect transform="rotate(-8.228093526835956,184,672.4953663203606)" x="184" y="672.4953663203606" width="58" height="58" fill="none" stroke="white" stroke-width="3"></rect><rect transform="rotate(0,244,187.39672270882338)" x="244" y="187.39672270882338" width="58" height="58" fill="none" stroke="white" stroke-width="3"></rect><rect transform="rotate(-0.5306133384299208,244,251.62508939362723)" x="244" y="251.62508939362723" width="58" height="58" fill="none" stroke="white" stroke-width="3"></rect><rect transform="rotate(3.09859307904806,244,308.5860697577921)" x="244" y="308.5860697577921" width="58" height="58" fill="none" stroke="white" stroke-width="3"></rect><rect transform="rotate(2.2286241757924317,244,366.1067674366148)" x="244" y="366.1067674366148" width="58" height="58" fill="none" stroke="white" stroke-width="3"></rect><rect transform="rotate(3.437104862972136,244,425.7273434726585)" x="244" y="425.7273434726585" width="58" height="58" fill="none" stroke="white" stroke-width="3"></rect><rect transform="rotate(4.950429055769581,244,488.29134421118005)" x="244" y="488.29134421118005" width="58" height="58" fill="none" stroke="white" stroke-width="3"></rect><rect transform="rotate(-3.7599037592863658,244,549.2107040173237)" x="244" y="549.2107040173237" width="58" height="58" fill="none" stroke="white" stroke-width="3"></rect><rect transform="rotate(10.4157580138745,244,609.8400816107796)" x="244" y="609.8400816107796" width="58" height="58" fill="none" stroke="white" stroke-width="3"></rect><rect transform="rotate(12.791043186284952,244,666.1033017644463)" x="244" y="666.1033017644463" width="58" height="58" fill="none" stroke="white" stroke-width="3"></rect><rect transform="rotate(0,304,192.32066691185187)" x="304" y="192.32066691185187" width="58" height="58" fill="none" stroke="white" stroke-width="3"></rect><rect transform="rotate(-1.0849479572104777,304,249.33558100440763)" x="304" y="249.33558100440763" width="58" height="58" fill="none" stroke="white" stroke-width="3"></rect><rect transform="rotate(-0.458758124436617,304,307.9679354190602)" x="304" y="307.9679354190602" width="58" height="58" fill="none" stroke="white" stroke-width="3"></rect><rect transform="rotate(1.3377214784655234,304,370.09469582703275)" x="304" y="370.09469582703275" width="58" height="58" fill="none" stroke="white" stroke-width="3"></rect><rect transform="rotate(4.908794323446633,304,430.93426490982523)" x="304" y="430.93426490982523" width="58" height="58" fill="none" stroke="white" stroke-width="3"></rect><rect transform="rotate(1.9284666515482662,304,491.5213225794546)" x="304" y="491.5213225794546" width="58" height="58" fill="none" stroke="white" stroke-width="3"></rect><rect transform="rotate(8.923000260354808,304,544.4651410146901)" x="304" y="544.4651410146901" width="58" height="58" fill="none" stroke="white" stroke-width="3"></rect><rect transform="rotate(-8.641687613925107,304,610.357672361867)" x="304" y="610.357672361867" width="58" height="58" fill="none" stroke="white" stroke-width="3"></rect><rect transform="rotate(-8.028622582338663,304,673.0241031086538)" x="304" y="673.0241031086538" width="58" height="58" fill="none" stroke="white" stroke-width="3"></rect><rect transform="rotate(0,364,187.7078344621021)" x="364" y="187.7078344621021" width="58" height="58" fill="none" stroke="white" stroke-width="3"></rect><rect transform="rotate(-1.4921982606384936,364,252.6365828468961)" x="364" y="252.6365828468961" width="58" height="58" fill="none" stroke="white" stroke-width="3"></rect><rect transform="rotate(0.2857721220121219,364,306.62363959116476)" x="364" y="306.62363959116476" width="58" height="58" fill="none" stroke="white" stroke-width="3"></rect><rect transform="rotate(-5.094998163343485,364,371.2368678117901)" x="364" y="371.2368678117901" width="58" height="58" fill="none" stroke="white" stroke-width="3"></rect><rect transform="rotate(-3.7221180936289056,364,433.31491711731167)" x="364" y="433.31491711731167" width="58" height="58" fill="none" stroke="white" stroke-width="3"></rect><rect transform="rotate(-2.670508844317525,364,486.79381283659205)" x="364" y="486.79381283659205" width="58" height="58" fill="none" stroke="white" stroke-width="3"></rect><rect transform="rotate(-0.5923903063916587,364,548.106817900084)" x="364" y="548.106817900084" width="58" height="58" fill="none" stroke="white" stroke-width="3"></rect><rect transform="rotate(-13.746406609363707,364,608.4725898832017)" x="364" y="608.4725898832017" width="58" height="58" fill="none" stroke="white" stroke-width="3"></rect><rect transform="rotate(-7.618947249086137,364,672.3568253284922)" x="364" y="672.3568253284922" width="58" height="58" fill="none" stroke="white" stroke-width="3"></rect><rect transform="rotate(0,424,193.2882084544029)" x="424" y="193.2882084544029" width="58" height="58" fill="none" stroke="white" stroke-width="3"></rect><rect transform="rotate(-1.1134114553433938,424,251.17408298265366)" x="424" y="251.17408298265366" width="58" height="58" fill="none" stroke="white" stroke-width="3"></rect><rect transform="rotate(-1.008954500993613,424,312.2971456421348)" x="424" y="312.2971456421348" width="58" height="58" fill="none" stroke="white" stroke-width="3"></rect><rect transform="rotate(-0.4172663779089487,424,365.334649797321)" x="424" y="365.334649797321" width="58" height="58" fill="none" stroke="white" stroke-width="3"></rect><rect transform="rotate(2.4459096599789873,424,429.3730850322664)" x="424" y="429.3730850322664" width="58" height="58" fill="none" stroke="white" stroke-width="3"></rect><rect transform="rotate(-4.377216783930851,424,491.54754479453203)" x="424" y="491.54754479453203" width="58" height="58" fill="none" stroke="white" stroke-width="3"></rect><rect transform="rotate(2.0101836963950763,424,545.1826617755398)" x="424" y="545.1826617755398" width="58" height="58" fill="none" stroke="white" stroke-width="3"></rect><rect transform="rotate(-11.354619017167172,424,612.2114065310212)" x="424" y="612.2114065310212" width="58" height="58" fill="none" stroke="white" stroke-width="3"></rect><rect transform="rotate(-9.893476303357254,424,665.1184886049742)" x="424" y="665.1184886049742" width="58" height="58" fill="none" stroke="white" stroke-width="3"></rect><rect transform="rotate(0,484,187.03478353511386)" x="484" y="187.03478353511386" width="58" height="58" fill="none" stroke="white" stroke-width="3"></rect><rect transform="rotate(-1.8424091936227556,484,253.47364922486634)" x="484" y="253.47364922486634" width="58" height="58" fill="none" stroke="white" stroke-width="3"></rect><rect transform="rotate(2.32493021829068,484,311.29574755574066)" x="484" y="311.29574755574066" width="58" height="58" fill="none" stroke="white" stroke-width="3"></rect><rect transform="rotate(-1.4756536882119882,484,372.13307345517916)" x="484" y="372.13307345517916" width="58" height="58" fill="none" stroke="white" stroke-width="3"></rect><rect transform="rotate(4.993200977264442,484,425.9427423058484)" x="484" y="425.9427423058484" width="58" height="58" fill="none" stroke="white" stroke-width="3"></rect><rect transform="rotate(0.10243328727848278,484,484.8856767624869)" x="484" y="484.8856767624869" width="58" height="58" fill="none" stroke="white" stroke-width="3"></rect><rect transform="rotate(-4.145269280722097,484,547.1140037300545)" x="484" y="547.1140037300545" width="58" height="58" fill="none" stroke="white" stroke-width="3"></rect><rect transform="rotate(-9.271901982169737,484,611.4109250130927)" x="484" y="611.4109250130927" width="58" height="58" fill="none" stroke="white" stroke-width="3"></rect><rect transform="rotate(-1.0066231458145403,484,670.5358497817987)" x="484" y="670.5358497817987" width="58" height="58" fill="none" stroke="white" stroke-width="3"></rect><rect transform="rotate(0,544,188.3542873505825)" x="544" y="188.3542873505825" width="58" height="58" fill="none" stroke="white" stroke-width="3"></rect><rect transform="rotate(-0.3516407788768734,544,250.43473745220209)" x="544" y="250.43473745220209" width="58" height="58" fill="none" stroke="white" stroke-width="3"></rect><rect transform="rotate(-0.9068297571418373,544,306.6585838233017)" x="544" y="306.6585838233017" width="58" height="58" fill="none" stroke="white" stroke-width="3"></rect><rect transform="rotate(2.3797644134641196,544,370.4948934294367)" x="544" y="370.4948934294367" width="58" height="58" fill="none" stroke="white" stroke-width="3"></rect><rect transform="rotate(5.682289634750591,544,431.97341735762205)" x="544" y="431.97341735762205" width="58" height="58" fill="none" stroke="white" stroke-width="3"></rect><rect transform="rotate(6.2734622082768166,544,490.4661469625192)" x="544" y="490.4661469625192" width="58" height="58" fill="none" stroke="white" stroke-width="3"></rect><rect transform="rotate(4.681136919564646,544,549.1674837437495)" x="544" y="549.1674837437495" width="58" height="58" fill="none" stroke="white" stroke-width="3"></rect><rect transform="rotate(-7.867884062815157,544,612.1219524197888)" x="544" y="612.1219524197888" width="58" height="58" fill="none" stroke="white" stroke-width="3"></rect><rect transform="rotate(-7.676571933311159,544,671.4391574837616)" x="544" y="671.4391574837616" width="58" height="58" fill="none" stroke="white" stroke-width="3"></rect><rect transform="rotate(0,604,188.3037334248728)" x="604" y="188.3037334248728" width="58" height="58" fill="none" stroke="white" stroke-width="3"></rect><rect transform="rotate(1.1863335335299876,604,253.94013710388725)" x="604" y="253.94013710388725" width="58" height="58" fill="none" stroke="white" stroke-width="3"></rect><rect transform="rotate(0.18186227349510364,604,304.99048033100627)" x="604" y="304.99048033100627" width="58" height="58" fill="none" stroke="white" stroke-width="3"></rect><rect transform="rotate(-0.17006874157829355,604,372.0861426085212)" x="604" y="372.0861426085212" width="58" height="58" fill="none" stroke="white" stroke-width="3"></rect><rect transform="rotate(-1.0901620304062618,604,432.4015125189564)" x="604" y="432.4015125189564" width="58" height="58" fill="none" stroke="white" stroke-width="3"></rect><rect transform="rotate(-3.786883749353367,604,486.6263287939384)" x="604" y="486.6263287939384" width="58" height="58" fill="none" stroke="white" stroke-width="3"></rect><rect transform="rotate(-3.8726214955026617,604,553.0186312861263)" x="604" y="553.0186312861263" width="58" height="58" fill="none" stroke="white" stroke-width="3"></rect><rect transform="rotate(9.080834815530068,604,611.3310862129784)" x="604" y="611.3310862129784" width="58" height="58" fill="none" stroke="white" stroke-width="3"></rect><rect transform="rotate(13.54179717774521,604,671.4035196168297)" x="604" y="671.4035196168297" width="58" height="58" fill="none" stroke="white" stroke-width="3"></rect><rect transform="rotate(0,664,192.4954044831475)" x="664" y="192.4954044831475" width="58" height="58" fill="none" stroke="white" stroke-width="3"></rect><rect transform="rotate(-1.9527742336216405,664,251.22441007169007)" x="664" y="251.22441007169007" width="58" height="58" fill="none" stroke="white" stroke-width="3"></rect><rect transform="rotate(-1.3353767431212482,664,306.30124171917123)" x="664" y="306.30124171917123" width="58" height="58" fill="none" stroke="white" stroke-width="3"></rect><rect transform="rotate(-3.055553041377221,664,368.7665709661781)" x="664" y="368.7665709661781" width="58" height="58" fill="none" stroke="white" stroke-width="3"></rect><rect transform="rotate(6.387438891214899,664,430.54423802962935)" x="664" y="430.54423802962935" width="58" height="58" fill="none" stroke="white" stroke-width="3"></rect><rect transform="rotate(9.414754850639435,664,490.49080068205757)" x="664" y="490.49080068205757" width="58" height="58" fill="none" stroke="white" stroke-width="3"></rect><rect transform="rotate(-11.832048929868474,664,551.4439672517832)" x="664" y="551.4439672517832" width="58" height="58" fill="none" stroke="white" stroke-width="3"></rect><rect transform="rotate(6.506774856813337,664,612.369972827461)" x="664" y="612.369972827461" width="58" height="58" fill="none" stroke="white" stroke-width="3"></rect><rect transform="rotate(-5.581457843366707,664,667.3747411912855)" x="664" y="667.3747411912855" width="58" height="58" fill="none" stroke="white" stroke-width="3"></rect></svg>