<svg width="900" height="900" fill="white"><rect x="0" y="0" width="900" height="900" fill="none"></rect><rect transform="rotate(0,184,186.8635841113042)" x="184" y="186.8635841113042" width="58" height="58" fill="none" stroke="black" stroke-width="3"></rect><rect transform="rotate(-0.4035594538326789,184,244.73518201486775)" x="184" y="244.73518201486775" width="58" height="58" fill="none" stroke="black" stroke-width="3"></rect><rect transform="rotate(1.458582555065471,184,312.2066597221159)" x="184" y="312.2066597221159" width="58" height="58" fill="none" stroke="black" stroke-width="3"></rect><rect transform="rotate(-4.311823880012736,184,371.2133837010305)" x="184" y="371.2133837010305" width="58" height="58" fill="none" stroke="black" stroke-width="3"></rect><rect transform="rotate(-4.226242496817877,184,424.6697994358894)" x="184" y="424.6697994358894" width="58" height="58" fill="none" stroke="black" stroke-width="3"></rect><rect transform="rotate(1.5558648125363483,184,485.10529882847686)" x="184" y="485.10529882847686" width="58" height="58" fill="none" stroke="black" stroke-width="3"></rect><rect transform="rotate(-7.708521432100467,184,549.1795411076629)" x="184" y="549.1795411076629" width="58" height="58" fill="none" stroke="black" stroke-width="3"></rect><rect transform="rotate(5.85645866793726,184,606.02990729897)" x="184" y="606.02990729897" width="58" height="58" fill="none" stroke="black" stroke-width="3"></rect><rect transform="rotate(10.210248054180795,184,670.7015290002149)" x="184" y="670.7015290002149" width="58" height="58" fill="none" stroke="black" stroke-width="3"></rect><rect transform="rotate(0,244,189.57402923118417)" x="244" y="189.57402923118417" width="58" height="58" fill="none" stroke="black" stroke-width="3"></rect><rect transform="rotate(1.39446966443868,244,246.13608220606346)" x="244" y="246.13608220606346" width="58" height="58" fill="none" stroke="black" stroke-width="3"></rect><rect transform="rotate(-2.3109187292198534,244,307.1218501541791)" x="244" y="307.1218501541791" width="58" height="58" fill="none" stroke="black" stroke-width="3"></rect><rect transform="rotate(-4.463797175236618,244,368.74864148054365)" x="244" y="368.74864148054365" width="58" height="58" fill="none" stroke="black" stroke-width="3"></rect><rect transform="rotate(-0.6405231420211095,244,433.4254868313326)" x="244" y="433.4254868313326" width="58" height="58" fill="none" stroke="black" stroke-width="3"></rect><rect transform="rotate(6.820083328772919,244,488.20107757220916)" x="244" y="488.20107757220916" width="58" height="58" fill="none" stroke="black" stroke-width="3"></rect><rect transform="rotate(-1.8951627628919807,244,552.3456607121724)" x="244" y="552.3456607121724" width="58" height="58" fill="none" stroke="black" stroke-width="3"></rect><rect transform="rotate(-6.6248540142846375,244,605.8416595000002)" x="244" y="605.8416595000002" width="58" height="58" fill="none" stroke="black" stroke-width="3"></rect><rect transform="rotate(7.498745697069728,244,671.2297174757269)" x="244" y="671.2297174757269" width="58" height="58" fill="none" stroke="black" stroke-width="3"></rect><rect transform="rotate(0,304,189.1997924089818)" x="304" y="189.1997924089818" width="58" height="58" fill="none" stroke="black" stroke-width="3"></rect><rect transform="rotate(-0.17564620683123722,304,251.3716774618876)" x="304" y="251.3716774618876" width="58" height="58" fill="none" stroke="black" stroke-width="3"></rect><rect transform="rotate(2.8532605967462357,304,312.3474067196447)" x="304" y="312.3474067196447" width="58" height="58" fill="none" stroke="black" stroke-width="3"></rect><rect transform="rotate(4.063614656584587,304,367.46884243478496)" x="304" y="367.46884243478496" width="58" height="58" fill="none" stroke="black" stroke-width="3"></rect><rect transform="rotate(4.360096497669193,304,431.43095472188816)" x="304" y="431.43095472188816" width="58" height="58" fill="none" stroke="black" stroke-width="3"></rect><rect transform="rotate(-3.1492374637906893,304,489.75580896369405)" x="304" y="489.75580896369405" width="58" height="58" fill="none" stroke="black" stroke-width="3"></rect><rect transform="rotate(3.9507393258096473,304,546.0539473335366)" x="304" y="546.0539473335366" width="58" height="58" fill="none" stroke="black" stroke-width="3"></rect><rect transform="rotate(-10.356211804990835,304,604.8368599414121)" x="304" y="604.8368599414121" width="58" height="58" fill="none" stroke="black" stroke-width="3"></rect><rect transform="rotate(1.8637272994317957,304,671.8464000182744)" x="304" y="671.8464000182744" width="58" height="58" fill="none" stroke="black" stroke-width="3"></rect><rect transform="rotate(0,364,192.62554975557947)" x="364" y="192.62554975557947" width="58" height="58" fill="none" stroke="black" stroke-width="3"></rect><rect transform="rotate(0.38518367029333167,364,250.96497875345594)" x="364" y="250.96497875345594" width="58" height="58" fill="none" stroke="black" stroke-width="3"></rect><rect transform="rotate(1.1111938394998915,364,312.44599778933036)" x="364" y="312.44599778933036" width="58" height="58" fill="none" stroke="black" stroke-width="3"></rect><rect transform="rotate(3.7243189460354094,364,365.7359259968675)" x="364" y="365.7359259968675" width="58" height="58" fill="none" stroke="black" stroke-width="3"></rect><rect transform="rotate(2.4702805316156144,364,431.8347685014936)" x="364" y="431.8347685014936" width="58" height="58" fill="none" stroke="black" stroke-width="3"></rect><rect transform="rotate(-5.220307052985602,364,492.35488847401814)" x="364" y="492.35488847401814" width="58" height="58" fill="none" stroke="black" stroke-width="3"></rect><rect transform="rotate(0.20443873361299314,364,545.8596852919791)" x="364" y="545.8596852919791" width="58" height="58" fill="none" stroke="black" stroke-width="3"></rect><rect transform="rotate(-7.317188300552587,364,608.7321575362256)" x="364" y="608.7321575362256" width="58" height="58" fill="none" stroke="black" stroke-width="3"></rect><rect transform="rotate(5.877352777917856,364,665.2472084972126)" x="364" y="665.2472084972126" width="58" height="58" fill="none" stroke="black" stroke-width="3"></rect><rect transform="rotate(0,424,185.91890111062565)" x="424" y="185.91890111062565" width="58" height="58" fill="none" stroke="black" stroke-width="3"></rect><rect transform="rotate(-1.1911664718181179,424,247.5276669322736)" x="424" y="247.5276669322736" width="58" height="58" fill="none" stroke="black" stroke-width="3"></rect><rect transform="rotate(2.2124923115736785,424,313.8128612012714)" x="424" y="313.8128612012714" width="58" height="58" fill="none" stroke="black" stroke-width="3"></rect><rect transform="rotate(-2.3207027017549384,424,372.25812713753004)" x="424" y="372.25812713753004" width="58" height="58" fill="none" stroke="black" stroke-width="3"></rect><rect transform="rotate(3.9774941632557637,424,429.14296714296853)" x="424" y="429.14296714296853" width="58" height="58" fill="none" stroke="black" stroke-width="3"></rect><rect transform="rotate(2.084451457076055,424,491.97945838011253)" x="424" y="491.97945838011253" width="58" height="58" fill="none" stroke="black" stroke-width="3"></rect><rect transform="rotate(-1.2362557745817722,424,552.0853718668031)" x="424" y="552.0853718668031" width="58" height="58" fill="none" stroke="black" stroke-width="3"></rect><rect transform="rotate(-9.783826700254163,424,606.2353736144113)" x="424" y="606.2353736144113" width="58" height="58" fill="none" stroke="black" stroke-width="3"></rect><rect transform="rotate(5.269010614637214,424,665.8216611156165)" x="424" y="665.8216611156165" width="58" height="58" fill="none" stroke="black" stroke-width="3"></rect><rect transform="rotate(0,484,189.6284197384056)" x="484" y="189.6284197384056" width="58" height="58" fill="none" stroke="black" stroke-width="3"></rect><rect transform="rotate(1.432865976601626,484,252.15795742983553)" x="484" y="252.15795742983553" width="58" height="58" fill="none" stroke="black" stroke-width="3"></rect><rect transform="rotate(1.884485525786194,484,309.7200132284154)" x="484" y="309.7200132284154" width="58" height="58" fill="none" stroke="black" stroke-width="3"></rect><rect transform="rotate(0.11704822281897109,484,370.06498116388195)" x="484" y="370.06498116388195" width="58" height="58" fill="none" stroke="black" stroke-width="3"></rect><rect transform="rotate(-1.0561398808588183,484,430.9395104747671)" x="484" y="430.9395104747671" width="58" height="58" fill="none" stroke="black" stroke-width="3"></rect><rect transform="rotate(-4.632571188415432,484,484.3789657483105)" x="484" y="484.3789657483105" width="58" height="58" fill="none" stroke="black" stroke-width="3"></rect><rect transform="rotate(2.062182656315458,484,550.5398498826751)" x="484" y="550.5398498826751" width="58" height="58" fill="none" stroke="black" stroke-width="3"></rect><rect transform="rotate(-5.245760994691892,484,612.535626588551)" x="484" y="612.535626588551" width="58" height="58" fill="none" stroke="black" stroke-width="3"></rect><rect transform="rotate(-2.864924778257019,484,668.0939823162911)" x="484" y="668.0939823162911" width="58" height="58" fill="none" stroke="black" stroke-width="3"></rect><rect transform="rotate(0,544,192.78198414731867)" x="544" y="192.78198414731867" width="58" height="58" fill="none" stroke="black" stroke-width="3"></rect><rect transform="rotate(1.0080209896403622,544,251.44720946401713)" x="544" y="251.44720946401713" width="58" height="58" fill="none" stroke="black" stroke-width="3"></rect><rect transform="rotate(-0.8145059503274663,544,308.9265655840371)" x="544" y="308.9265655840371" width="58" height="58" fill="none" stroke="black" stroke-width="3"></rect><rect transform="rotate(-0.14690561899932897,544,373.07151974211615)" x="544" y="373.07151974211615" width="58" height="58" fill="none" stroke="black" stroke-width="3"></rect><rect transform="rotate(2.781155902795596,544,431.80030832169035)" x="544" y="431.80030832169035" width="58" height="58" fill="none" stroke="black" stroke-width="3"></rect><rect transform="rotate(2.857359682491061,544,484.5514627050994)" x="544" y="484.5514627050994" width="58" height="58" fill="none" stroke="black" stroke-width="3"></rect><rect transform="rotate(-6.699063037071034,544,552.5385312095957)" x="544" y="552.5385312095957" width="58" height="58" fill="none" stroke="black" stroke-width="3"></rect><rect transform="rotate(5.641026410751619,544,606.4320188141256)" x="544" y="606.4320188141256" width="58" height="58" fill="none" stroke="black" stroke-width="3"></rect><rect transform="rotate(6.494574595917371,544,673.4858351450878)" x="544" y="673.4858351450878" width="58" height="58" fill="none" stroke="black" stroke-width="3"></rect><rect transform="rotate(0,604,185.70447727479822)" x="604" y="185.70447727479822" width="58" height="58" fill="none" stroke="black" stroke-width="3"></rect><rect transform="rotate(-0.9637938494092431,604,248.30322400182416)" x="604" y="248.30322400182416" width="58" height="58" fill="none" stroke="black" stroke-width="3"></rect><rect transform="rotate(0.7732489846471979,604,311.2269136529306)" x="604" y="311.2269136529306" width="58" height="58" fill="none" stroke="black" stroke-width="3"></rect><rect transform="rotate(2.4577969980493153,604,366.1227739094349)" x="604" y="366.1227739094349" width="58" height="58" fill="none" stroke="black" stroke-width="3"></rect><rect transform="rotate(-3.496580268403871,604,429.7140059159546)" x="604" y="429.7140059159546" width="58" height="58" fill="none" stroke="black" stroke-width="3"></rect><rect transform="rotate(3.2049069021966483,604,488.49499455169996)" x="604" y="488.49499455169996" width="58" height="58" fill="none" stroke="black" stroke-width="3"></rect><rect transform="rotate(-5.786781750874869,604,553.6268999889804)" x="604" y="553.6268999889804" width="58" height="58" fill="none" stroke="black" stroke-width="3"></rect><rect transform="rotate(-6.573277258768366,604,612.0329454009839)" x="604" y="612.0329454009839" width="58" height="58" fill="none" stroke="black" stroke-width="3"></rect><rect transform="rotate(1.2296341607902583,604,672.3850276238533)" x="604" y="672.3850276238533" width="58" height="58" fill="none" stroke="black" stroke-width="3"></rect><rect transform="rotate(0,664,189.77472386208566)" x="664" y="189.77472386208566" width="58" height="58" fill="none" stroke="black" stroke-width="3"></rect><rect transform="rotate(-0.4555068304333787,664,252.08394721463705)" x="664" y="252.08394721463705" width="58" height="58" fill="none" stroke="black" stroke-width="3"></rect><rect transform="rotate(1.8964888618864222,664,307.47666749536444)" x="664" y="307.47666749536444" width="58" height="58" fill="none" stroke="black" stroke-width="3"></rect><rect transform="rotate(0.14583544650447355,664,369.9548016673809)" x="664" y="369.9548016673809" width="58" height="58" fill="none" stroke="black" stroke-width="3"></rect><rect transform="rotate(-5.268975885623222,664,428.2863532051512)" x="664" y="428.2863532051512" width="58" height="58" fill="none" stroke="black" stroke-width="3"></rect><rect transform="rotate(-2.130588513641092,664,486.68022170660197)" x="664" y="486.68022170660197" width="58" height="58" fill="none" stroke="black" stroke-width="3"></rect><rect transform="rotate(-1.5669856917121174,664,546.3084797568406)" x="664" y="546.3084797568406" width="58" height="58" fill="none" stroke="black" stroke-width="3"></rect><rect transform="rotate(0.8303270550877573,664,607.2168806606704)" x="664" y="607.2168806606704" width="58" height="58" fill="none" stroke="black" stroke-width="3"></rect><rect transform="rotate(-2.7924422929520833,664,673.1371354528333)" x="664" y="673.1371354528333" width="58" height="58" fill="none" stroke="black" stroke-width="3"></rect></svg>