<svg width="900" height="900" fill="black"><rect x="0" y="0" width="900" height="900" fill="black"></rect><rect transform="rotate(0,184,190.87056243876287)" x="184" y="190.87056243876287" width="58" height="58" fill="none" stroke="white" stroke-width="3"></rect><rect transform="rotate(-0.8181370098328459,184,244.87650363091814)" x="184" y="244.87650363091814" width="58" height="58" fill="none" stroke="white" stroke-width="3"></rect><rect transform="rotate(-1.211992306073326,184,304.88997467478555)" x="184" y="304.88997467478555" width="58" height="58" fill="none" stroke="white" stroke-width="3"></rect><rect transform="rotate(2.099325074764966,184,369.9689243712206)" x="184" y="369.9689243712206" width="58" height="58" fill="none" stroke="white" stroke-width="3"></rect><rect transform="rotate(4.4265328530876165,184,430.77862932350615)" x="184" y="430.77862932350615" width="58" height="58" fill="none" stroke="white" stroke-width="3"></rect><rect transform="rotate(0.21751383001998859,184,485.50939311347025)" x="184" y="485.50939311347025" width="58" height="58" fill="none" stroke="white" stroke-width="3"></rect><rect transform="rotate(7.173737703609543,184,552.2235864249287)" x="184" y="552.2235864249287" width="58" height="58" fill="none" stroke="white" stroke-width="3"></rect><rect transform="rotate(3.2684671976197777,184,607.4852826461392)" x="184" y="607.4852826461392" width="58" height="58" fill="none" stroke="white" stroke-width="3"></rect><rect transform="rotate(3.5426551554889816,184,667.151878971292)" x="184" y="667.151878971292" width="58" height="58" fill="none" stroke="white" stroke-width="3"></rect><rect transform="rotate(0,244,192.6251520287092)" x="244" y="192.6251520287092" width="58" height="58" fill="none" stroke="white" stroke-width="3"></rect><rect transform="rotate(0.7252890084044576,244,249.70272200407942)" x="244" y="249.70272200407942" width="58" height="58" fill="none" stroke="white" stroke-width="3"></rect><rect transform="rotate(-2.0636697752567663,244,308.7561294848542)" x="244" y="308.7561294848542" width="58" height="58" fill="none" stroke="white" stroke-width="3"></rect><rect transform="rotate(0.9014158437766906,244,365.08337576283026)" x="244" y="365.08337576283026" width="58" height="58" fill="none" stroke="white" stroke-width="3"></rect><rect transform="rotate(5.676271571801015,244,424.0622810533805)" x="244" y="424.0622810533805" width="58" height="58" fill="none" stroke="white" stroke-width="3"></rect><rect transform="rotate(5.393665235010508,244,492.56710029087054)" x="244" y="492.56710029087054" width="58" height="58" fill="none" stroke="white" stroke-width="3"></rect><rect transform="rotate(1.13413492972252,244,553.7192763050608)" x="244" y="553.7192763050608" width="58" height="58" fill="none" stroke="white" stroke-width="3"></rect><rect transform="rotate(-2.0428134209549538,244,606.8286843589573)" x="244" y="606.8286843589573" width="58" height="58" fill="none" stroke="white" stroke-width="3"></rect><rect transform="rotate(3.6357227954862106,244,672.0882800826332)" x="244" y="672.0882800826332" width="58" height="58" fill="none" stroke="white" stroke-width="3"></rect><rect transform="rotate(0,304,189.60912594911701)" x="304" y="189.60912594911701" width="58" height="58" fill="none" stroke="white" stroke-width="3"></rect><rect transform="rotate(0.006152467570446296,304,247.6131007161284)" x="304" y="247.6131007161284" width="58" height="58" fill="none" stroke="white" stroke-width="3"></rect><rect transform="rotate(1.2440542480372545,304,310.6302759514815)" x="304" y="310.6302759514815" width="58" height="58" fill="none" stroke="white" stroke-width="3"></rect><rect transform="rotate(2.246874526828128,304,372.30029898781015)" x="304" y="372.30029898781015" width="58" height="58" fill="none" stroke="white" stroke-width="3"></rect><rect transform="rotate(1.6870048393454211,304,427.2630536440968)" x="304" y="427.2630536440968" width="58" height="58" fill="none" stroke="white" stroke-width="3"></rect><rect transform="rotate(4.494734583215692,304,484.73335654587913)" x="304" y="484.73335654587913" width="58" height="58" fill="none" stroke="white" stroke-width="3"></rect><rect transform="rotate(4.84049973793901,304,550.7988855494208)" x="304" y="550.7988855494208" width="58" height="58" fill="none" stroke="white" stroke-width="3"></rect><rect transform="rotate(7.981406576343562,304,609.5500867826277)" x="304" y="609.5500867826277" width="58" height="58" fill="none" stroke="white" stroke-width="3"></rect><rect transform="rotate(5.799208254218379,304,670.5476047279424)" x="304" y="670.5476047279424" width="58" height="58" fill="none" stroke="white" stroke-width="3"></rect><rect transform="rotate(0,364,187.5694445209217)" x="364" y="187.5694445209217" width="58" height="58" fill="none" stroke="white" stroke-width="3"></rect><rect transform="rotate(-0.6654616930807407,364,253.50220534437878)" x="364" y="253.50220534437878" width="58" height="58" fill="none" stroke="white" stroke-width="3"></rect><rect transform="rotate(-2.2590291712504973,364,311.3488711279821)" x="364" y="311.3488711279821" width="58" height="58" fill="none" stroke="white" stroke-width="3"></rect><rect transform="rotate(-3.754408645015727,364,373.37482001462934)" x="364" y="373.37482001462934" width="58" height="58" fill="none" stroke="white" stroke-width="3"></rect><rect transform="rotate(0.9892502502690994,364,428.59493902488805)" x="364" y="428.59493902488805" width="58" height="58" fill="none" stroke="white" stroke-width="3"></rect><rect transform="rotate(-7.410472489513305,364,490.54450729902845)" x="364" y="490.54450729902845" width="58" height="58" fill="none" stroke="white" stroke-width="3"></rect><rect transform="rotate(-2.225172306504259,364,553.1831827980886)" x="364" y="553.1831827980886" width="58" height="58" fill="none" stroke="white" stroke-width="3"></rect><rect transform="rotate(9.632555707310742,364,612.6750662165696)" x="364" y="612.6750662165696" width="58" height="58" fill="none" stroke="white" stroke-width="3"></rect><rect transform="rotate(-10.64508773731815,364,672.9253405091218)" x="364" y="672.9253405091218" width="58" height="58" fill="none" stroke="white" stroke-width="3"></rect><rect transform="rotate(0,424,192.04631503201406)" x="424" y="192.04631503201406" width="58" height="58" fill="none" stroke="white" stroke-width="3"></rect><rect transform="rotate(1.1905553824525423,424,250.28458168939633)" x="424" y="250.28458168939633" width="58" height="58" fill="none" stroke="white" stroke-width="3"></rect><rect transform="rotate(-1.759186731077608,424,304.9118593546557)" x="424" y="304.9118593546557" width="58" height="58" fill="none" stroke="white" stroke-width="3"></rect><rect transform="rotate(-3.533372965162184,424,366.2620114930682)" x="424" y="366.2620114930682" width="58" height="58" fill="none" stroke="white" stroke-width="3"></rect><rect transform="rotate(-5.024865432215753,424,426.0245876907002)" x="424" y="426.0245876907002" width="58" height="58" fill="none" stroke="white" stroke-width="3"></rect><rect transform="rotate(4.737827431002993,424,491.37546152598117)" x="424" y="491.37546152598117" width="58" height="58" fill="none" stroke="white" stroke-width="3"></rect><rect transform="rotate(-1.2048298712487757,424,551.8711700770496)" x="424" y="551.8711700770496" width="58" height="58" fill="none" stroke="white" stroke-width="3"></rect><rect transform="rotate(-2.5769676575896927,424,605.6228896116944)" x="424" y="605.6228896116944" width="58" height="58" fill="none" stroke="white" stroke-width="3"></rect><rect transform="rotate(-6.133620215707171,424,665.9708052257761)" x="424" y="665.9708052257761" width="58" height="58" fill="none" stroke="white" stroke-width="3"></rect><rect transform="rotate(0,484,187.30053083842373)" x="484" y="187.30053083842373" width="58" height="58" fill="none" stroke="white" stroke-width="3"></rect><rect transform="rotate(-1.0863824012648644,484,252.84372799983166)" x="484" y="252.84372799983166" width="58" height="58" fill="none" stroke="white" stroke-width="3"></rect><rect transform="rotate(2.753685509913419,484,308.64864846363304)" x="484" y="308.64864846363304" width="58" height="58" fill="none" stroke="white" stroke-width="3"></rect><rect transform="rotate(-3.452501354386679,484,367.4215702061341)" x="484" y="367.4215702061341" width="58" height="58" fill="none" stroke="white" stroke-width="3"></rect><rect transform="rotate(1.9478706425892929,484,424.9457359020353)" x="484" y="424.9457359020353" width="58" height="58" fill="none" stroke="white" stroke-width="3"></rect><rect transform="rotate(3.4121730720805297,484,490.2571518909604)" x="484" y="490.2571518909604" width="58" height="58" fill="none" stroke="white" stroke-width="3"></rect><rect transform="rotate(6.243844043101055,484,546.739463543225)" x="484" y="546.739463543225" width="58" height="58" fill="none" stroke="white" stroke-width="3"></rect><rect transform="rotate(1.6888384659533817,484,609.7250566512276)" x="484" y="609.7250566512276" width="58" height="58" fill="none" stroke="white" stroke-width="3"></rect><rect transform="rotate(10.939720724511492,484,672.4383599073135)" x="484" y="672.4383599073135" width="58" height="58" fill="none" stroke="white" stroke-width="3"></rect><rect transform="rotate(0,544,188.552603585919)" x="544" y="188.552603585919" width="58" height="58" fill="none" stroke="white" stroke-width="3"></rect><rect transform="rotate(-1.096177495154723,544,249.78014667112345)" x="544" y="249.78014667112345" width="58" height="58" fill="none" stroke="white" stroke-width="3"></rect><rect transform="rotate(-0.4654258790095174,544,312.0970365968949)" x="544" y="312.0970365968949" width="58" height="58" fill="none" stroke="white" stroke-width="3"></rect><rect transform="rotate(4.288667277224244,544,370.86692252203164)" x="544" y="370.86692252203164" width="58" height="58" fill="none" stroke="white" stroke-width="3"></rect><rect transform="rotate(-5.615502161417412,544,425.61957398911727)" x="544" y="425.61957398911727" width="58" height="58" fill="none" stroke="white" stroke-width="3"></rect><rect transform="rotate(-0.9413769727783694,544,486.7964934168588)" x="544" y="486.7964934168588" width="58" height="58" fill="none" stroke="white" stroke-width="3"></rect><rect transform="rotate(7.871279263349795,544,547.2109088984829)" x="544" y="547.2109088984829" width="58" height="58" fill="none" stroke="white" stroke-width="3"></rect><rect transform="rotate(-0.7917738464409726,544,607.457345245298)" x="544" y="607.457345245298" width="58" height="58" fill="none" stroke="white" stroke-width="3"></rect><rect transform="rotate(-4.839677913657739,544,668.3036217816858)" x="544" y="668.3036217816858" width="58" height="58" fill="none" stroke="white" stroke-width="3"></rect><rect transform="rotate(0,604,191.58899927654824)" x="604" y="191.58899927654824" width="58" height="58" fill="none" stroke="white" stroke-width="3"></rect><rect transform="rotate(-0.2232236423982572,604,253.40521647726464)" x="604" y="253.40521647726464" width="58" height="58" fill="none" stroke="white" stroke-width="3"></rect><rect transform="rotate(-0.6581424989172169,604,305.8068982516778)" x="604" y="305.8068982516778" width="58" height="58" fill="none" stroke="white" stroke-width="3"></rect><rect transform="rotate(-1.5022128450721262,604,369.2838605914533)" x="604" y="369.2838605914533" width="58" height="58" fill="none" stroke="white" stroke-width="3"></rect><rect transform="rotate(-4.03769536790637,604,424.76292622649646)" x="604" y="424.76292622649646" width="58" height="58" fill="none" stroke="white" stroke-width="3"></rect><rect transform="rotate(6.160339389177624,604,491.98427650264443)" x="604" y="491.98427650264443" width="58" height="58" fill="none" stroke="white" stroke-width="3"></rect><rect transform="rotate(-4.291827794954761,604,550.926062757323)" x="604" y="550.926062757323" width="58" height="58" fill="none" stroke="white" stroke-width="3"></rect><rect transform="rotate(-4.198285811658682,604,610.8763642081336)" x="604" y="610.8763642081336" width="58" height="58" fill="none" stroke="white" stroke-width="3"></rect><rect transform="rotate(-7.225526197602677,604,667.0447515115848)" x="604" y="667.0447515115848" width="58" height="58" fill="none" stroke="white" stroke-width="3"></rect><rect transform="rotate(0,664,186.6885925102175)" x="664" y="186.6885925102175" width="58" height="58" fill="none" stroke="white" stroke-width="3"></rect><rect transform="rotate(1.1095225091208931,664,249.5875083021299)" x="664" y="249.5875083021299" width="58" height="58" fill="none" stroke="white" stroke-width="3"></rect><rect transform="rotate(0.47189506079482113,664,308.08495993749887)" x="664" y="308.08495993749887" width="58" height="58" fill="none" stroke="white" stroke-width="3"></rect><rect transform="rotate(3.776647402211501,664,372.4198564860412)" x="664" y="372.4198564860412" width="58" height="58" fill="none" stroke="white" stroke-width="3"></rect><rect transform="rotate(2.9707763388064667,664,431.03799617392673)" x="664" y="431.03799617392673" width="58" height="58" fill="none" stroke="white" stroke-width="3"></rect><rect transform="rotate(-4.5867511785611885,664,490.0634710356974)" x="664" y="490.0634710356974" width="58" height="58" fill="none" stroke="white" stroke-width="3"></rect><rect transform="rotate(-4.649454652012331,664,545.062453823509)" x="664" y="545.062453823509" width="58" height="58" fill="none" stroke="white" stroke-width="3"></rect><rect transform="rotate(4.38195533837386,664,607.3547714067695)" x="664" y="607.3547714067695" width="58" height="58" fill="none" stroke="white" stroke-width="3"></rect><rect transform="rotate(-11.716940560624582,664,670.6113685523169)" x="664" y="670.6113685523169" width="58" height="58" fill="none" stroke="white" stroke-width="3"></rect></svg>